/* XPM */
static char *result[] = {
/* columns rows colors chars-per-pixel */
"32 32 111 2 ",
"   c #7B685D",
".  c #5A7263",
"X  c #5C7162",
"o  c #5C7163",
"O  c #5D7262",
"+  c #6B6D60",
"@  c #6B6D61",
"#  c #6D6C60",
"$  c #6E6D60",
"%  c #6E6F61",
"&  c #716F60",
"*  c #607363",
"=  c #617463",
"-  c #627563",
";  c #627564",
":  c #607664",
">  c #6E7060",
",  c #6F7061",
"<  c #707161",
"1  c #727060",
"2  c #A37D68",
"3  c #A27E69",
"4  c #A77F69",
"5  c #9B856D",
"6  c #9A866D",
"7  c #9F876D",
"8  c #A08A6E",
"9  c #AD8E6F",
"0  c #AC8F70",
"q  c #B18F70",
"w  c #A79974",
"e  c #A69A75",
"r  c #AB9A75",
"t  c #AC9D76",
"y  c #B19070",
"u  c #B7A27A",
"i  c #B7A47B",
"p  c #BAA37A",
"a  c #BAA47A",
"s  c #BBA67B",
"d  c #74A8A7",
"f  c #70AAA9",
"g  c #76AAA8",
"h  c #74ACAA",
"j  c #63B7B6",
"k  c #69B9B7",
"l  c #61B9B8",
"z  c #67BCB9",
"x  c #7FCFC3",
"c  c #849D9C",
"v  c #9DB28A",
"b  c #9EB28A",
"n  c #9BB48B",
"m  c #9CB48B",
"M  c #9DB48B",
"N  c #9CB58B",
"B  c #A3B58B",
"V  c #A3B68B",
"C  c #A4B68B",
"Z  c #A2B88D",
"A  c #A3B88D",
"S  c #A3B98D",
"D  c #A7B88C",
"F  c #A6BB8D",
"G  c #B1B081",
"H  c #B2B081",
"J  c #B1B282",
"K  c #B7B583",
"L  c #B8B382",
"P  c #BEB78B",
"I  c #BFB78B",
"U  c #8DBAB0",
"Y  c #8EBAB0",
"T  c #8BBCB3",
"R  c #8BBDB3",
"E  c #8FBFB3",
"W  c #91BEB1",
"Q  c #92BEB1",
"!  c #C8B382",
"~  c #C2B68B",
"^  c #C2BF89",
"/  c #C3B98C",
"(  c #C9BD95",
")  c #94C394",
"_  c #94C395",
"`  c #95C395",
"'  c #93C596",
"]  c #9CC796",
"[  c #9DC796",
"{  c #9DC896",
"}  c #9FCC98",
"|  c #A0C996",
" . c #A0CA96",
".. c #BBC495",
"X. c #BBC796",
"o. c #8FC0B3",
"O. c #90C0B3",
"+. c #ACCAB5",
"@. c #C2C18A",
"#. c #C1C895",
"$. c #C1CB97",
"%. c #D0D1B9",
"&. c #81CDC0",
"*. c #81CCC1",
"=. c #84CFC1",
"-. c #86D0C1",
";. c #86D0C2",
":. c #85D3C4",
">. c #A4DEC6",
",. c #A5E2C9",
"<. c #CFE3C8",
/* pixels */
"S m _ ' ' ' ' ' ' ' ' ' ' ' ' ' ' ' ' ' ' ' ' ' ' ' ' ' ' ' ' ) ",
"F B m _ ' ' ' ' ' ' ' ' ' ' ' ' ' ' ' ' ' ' ' ' ' ' ' ' ' ' ` A ",
" .F C N _ ' ' ' ' ' ' ' ' ' ' ' ' ' ' ' ' ' ' ' ' ' ' ' ' ` A D ",
"}  .F C N _ ' ' ' ' ' ' ' ' ' ' ' ' ' ' ' ' ' ' ' ' ' ' ` A D F ",
"} }  .F C N _ ' ' ' ' ' ' ' ' ' ' ' ' ' ' ' ' ' ' ' ' ` A D F  .",
"} } }  .F V N _ ' ' ' ' ' ' ' ' ' ' ' ' ' ' ' ' ' ' ) A D F  .} ",
"} } } }  .F B N _ ' ' ' ' ' ' ' ' . . . ' ' ' ' ' ) A D F  .} } ",
"} } } } }  .F C + X . . . . . ' . @.@.@.. ' ' ' ) A D F  .} } } ",
"} } } } } }  .< p i ..X.J X.e . . @.. . l . ' ) A D F  .} } } } ",
"} } } } } : : L s ~ I G X.J J e . . l l l . ) A 1 < ; } } } } } ",
"} } } } : ,.: K #./ a I G J 6 e . l . . . O > 1 O.;.:.: } } } } ",
"} } } : ,.:.: $.$.L / a i G 6 e . l . x &.E Q O.;.:.:.: } } } } ",
"} } } : ,.:.: $.K $.L s a i 5 e . l x &.E Q O.;.:.z z : } } } } ",
"} } } : :.:.: K $.K K L s a 3 w . l &.E +.O.;.:.:.z : } } } } } ",
"} } } : :.:.: $.K K K K L s 4 0 X j o.Q %.;.,.:.:.: } } } } } } ",
"} } } : :.:.: K K K K K K L s q # g Q O.<.:.:.:.:.: } } } } } } ",
"} } } : :.:.: K K K K K K K L y   c W ;.:.:.:.:.:.: : } } } } } ",
"} } } : :.:.: 8 K K K K K K r 2     & - :.:.:.:.z :.:.: } } } } ",
"} } } : ,.:.: t 8 8 8 8 8 7 3 9 # ( ( ! - :.:.:.:.:.:.: } } } } ",
"} } } : ,.:.z : t t t t r 0 9 @ o ^ @ $ h - :.:.:.z z : } } } } ",
"} } } } : :.:.z : : : * @ # @ j x . *.T Y % -.:.:.z : } } } } } ",
"} } } } : ,.:.:.z z * 0 # f j x x l x *.T d h k z : } } } } } } ",
"} } } } } : ,.:.:.=.@ u @ j x x x . . . o @ $ , - } } } } } } } ",
"} } } } } } : ,.>.R # P o l x x x . ' ' ' ) n b A | } } } } } } ",
"} } } } } } } = @ U @ H . l l l . ' ' ' ' ' ) n b A | } } } } } ",
"} } } } } } ] N v @ o e . . . . ' ' ' ' ' ' ' ) n b A | } } } } ",
"} } } } } [ n v m _ ' . . ' ' ' ' ' ' ' ' ' ' ' ) n b Z | } } } ",
"} } } } [ M v m _ ' ' ' ' ' ' ' ' ' ' ' ' ' ' ' ' ) n b A | } } ",
"} } } [ M v m _ ' ' ' ' ' ' ' ' ' ' ' ' ' ' ' ' ' ' ) n b A | } ",
"} } [ M v m _ ' ' ' ' ' ' ' ' ' ' ' ' ' ' ' ' ' ' ' ' ) n b A | ",
"} ] n v m _ ' ' ' ' ' ' ' ' ' ' ' ' ' ' ' ' ' ' ' ' ' ' ) n b A ",
"{ n v m _ ' ' ' ' ' ' ' ' ' ' ' ' ' ' ' ' ' ' ' ' ' ' ' ' ) n v "
};
