/* XPM */
static char *result[] = {
/* columns rows colors chars-per-pixel */
"32 32 17 1 ",
"  c #211F30",
". c #843346",
"X c #A14744",
"o c #B96E54",
"O c #E68D41",
"+ c #CF9E6E",
"@ c #F2BC7E",
"# c #EA71BD",
"$ c #2FACDA",
"% c #6CD9F1",
"& c #93C596",
"* c #96C796",
"= c #9FCC98",
"- c #E4C997",
"; c #FBDFB1",
": c #F89CC0",
"> c white",
/* pixels */
"*&&&&&&&&&&&&&&&&&&&&&&&&&&&&&&*",
"=*&&&&&&&&&&&&&&&&&&&&&&&&&&&&*=",
"==*&&&&& &&& &&& &&& &&&&&&&&*==",
"===*&&& : & % & : & % &&&&&&*===",
"====*& ::# %%$ ::# %%$ &&&&*====",
"====   ::# %%$ ::# %%$   &*=====",
"=== %% ::# %%$ ::# %%$ :: ======",
"=== %%$ #   $   #   $ #:: ======",
"==== $$               ## =======",
"=====  --+ +oo.X +--.X  ========",
"====== +++ +oo.X +++.X O =======",
"====== ..+ ooo.X +...o O@ ======",
"====== >>. +oo.X .>>.o O@ ======",
"====== >>. ooo.X .>>.o O@@ =====",
"====== ..  ooo.X  ...o O@@ =====",
"====== + > ooo.X > +.o O@@ =====",
"====== + X XXX.. . +.o O@@ =====",
"====== + X.     .. +.o O@O =====",
"====== + >>>>>.>>> +.X O@ ======",
"====== o+         +o.X OO ======",
"======= ooooooooooo.X OO =======",
"========             O  ========",
"========  OOOOOOOOOOO@@@ =======",
"======= O @@@@@@@@@@@@@@@ ======",
"======= O @;;@;@@@@@@ O@@ ======",
"======* O @;;@@@@@@@@@ OO ======",
"=====*&&  @@@@@@@@@@@@O  &*=====",
"====*&&&& @@        @@O &&&*====",
"===*&&&&& O@O &&&&& O@O &&&&*===",
"==*&&&&&&& OO &&&&&& OO &&&&&*==",
"=*&&&&&&&&&  &&&&&&&&  &&&&&&&*=",
"*&&&&&&&&&&&&&&&&&&&&&&&&&&&&&&*"
};
