/* XPM */
static char *_5bdcbdfc8da44a9f88c8c207b1debdc3QJn5KtKyX7pYH03[] = {
/* columns rows colors chars-per-pixel */
"32 32 161 2 ",
"   c #2A2A3B",
".  c #28293C",
"X  c #2C2C3D",
"o  c #2E3040",
"O  c #333645",
"+  c #373947",
"@  c #383A47",
"#  c #393B49",
"$  c #3B3D4A",
"%  c #3C3E4B",
"&  c #3D3D51",
"*  c #3F424E",
"=  c #414251",
"-  c #424551",
";  c #474B55",
":  c #484C56",
">  c #494D57",
",  c #474A58",
"<  c #4A4D59",
"1  c #4C4F59",
"2  c #4E515A",
"3  c #50535F",
"4  c #51545D",
"5  c #50545E",
"6  c #4E4F60",
"7  c #4E5263",
"8  c #4F5364",
"9  c #505265",
"0  c #525665",
"q  c #535863",
"w  c #545963",
"e  c #5C5B63",
"r  c #515468",
"t  c #54586A",
"y  c #595E69",
"u  c #5B5D6C",
"i  c #5B5D6D",
"p  c #5C5F6F",
"a  c #5E636C",
"s  c #5E646D",
"d  c #5D6171",
"f  c #5F6475",
"g  c #60656F",
"h  c #61676F",
"j  c #656B77",
"k  c #63687A",
"l  c #666A79",
"z  c #676C7A",
"x  c #666B7D",
"c  c #676D7E",
"v  c #696E7D",
"b  c #6A6F7D",
"n  c #686D7F",
"m  c #6B717C",
"M  c #6B707E",
"N  c #6C707D",
"B  c #6E747D",
"V  c #71767B",
"C  c #70777F",
"Z  c #6A6F80",
"A  c #6E7381",
"S  c #6E7485",
"D  c #6F7686",
"F  c #707684",
"G  c #707686",
"H  c #707787",
"J  c #727987",
"K  c #747C84",
"L  c #767E85",
"P  c #777E86",
"I  c #717888",
"U  c #747B8A",
"Y  c #777E8C",
"T  c #787F8A",
"R  c #787E8D",
"E  c #7A8289",
"W  c #7E858B",
"Q  c #7E8591",
"!  c #7D8492",
"~  c #7E8593",
"^  c #7F8793",
"/  c #858588",
"(  c #858B91",
")  c #818995",
"_  c #888E93",
"`  c #848C98",
"'  c #858C99",
"]  c #858E99",
"[  c #868E9A",
"{  c #868F9B",
"}  c #8B9094",
"|  c #8A9196",
" . c #949497",
".. c #909098",
"X. c #90969A",
"o. c #91979B",
"O. c #969598",
"+. c #92989C",
"@. c #93989C",
"#. c #89B88C",
"$. c #8AB88D",
"%. c #8AB98D",
"&. c #94BF8E",
"*. c #95BF8F",
"=. c #8EA291",
"-. c #9099A4",
";. c #929BA5",
":. c #9A9EA1",
">. c #9C9CA2",
",. c #9E9DA3",
"<. c #949EA8",
"1. c #959FA8",
"2. c #97A0A9",
"3. c #9AA4AE",
"4. c #9CA7B0",
"5. c #A4A4A6",
"6. c #A5A5A7",
"7. c #ACACAE",
"8. c #ADACAE",
"9. c #A4AFB8",
"0. c #A5B0B9",
"q. c #A7B3BB",
"w. c #A8B4BC",
"e. c #A9B4BD",
"r. c #ADB6BD",
"t. c #8FC092",
"y. c #93C596",
"u. c #9BC794",
"i. c #9FCC98",
"p. c #ACB8C0",
"a. c #ADB9C1",
"s. c #AEBAC2",
"d. c #AFBBC3",
"f. c #B1BCC3",
"g. c #B0BCC4",
"h. c #B2BCC4",
"j. c #B4C0C7",
"k. c #B6C1C8",
"l. c #B8C4CB",
"z. c #BAC5CC",
"x. c #BDC8CF",
"c. c #BEC9CF",
"v. c #C2CACE",
"b. c #C3CED3",
"n. c #C5CED1",
"m. c #C4CED4",
"M. c #C6D0D6",
"N. c #CFD8DB",
"B. c #CFD8DD",
"V. c #CFD9DD",
"C. c #D1DBDF",
"Z. c #DBE1E3",
"A. c #DCE2E4",
"S. c gray88",
"D. c #E6E6E7",
"F. c #E6E6E8",
"G. c #E6E7E8",
"H. c #E7EDEF",
"J. c #EFF3F5",
"K. c #F4F4F5",
"L. c white",
/* pixels */
"y.y.y.y.y.y.y.y.y.y.y.y.y.y.y.y.y.y.y.y.y.y.y.y.y.y.y.y.y.y.y.y.",
"i.y.y.y.y.y.y.y.y.y.y.y.y.y.y.y.y.y.y.y.y.y.y.y.y.y.y.y.y.y.y.i.",
"i.i.y.y.y.y.y.y.y.y.y.y.y.y.y.y.y.y.y.y.y.y.y.y.y.y.y.y.y.y.i.i.",
"i.i.i.y.&.%.%.%.%.%.%.%.#.%.#.#.$.$.#.#.%.%.%.%.%.#.#.&.y.i.i.i.",
"i.i.i.u.=.7.5.8 L o.+.+.+.W ( L E P L L L | +.| 8 6.7.=.u.i.i.i.",
"i.i.i.*.7.J.A.z <.z.x.x.c.h.k.h.h.h.h.4.h.z.c.h.l A.J.7.*.i.i.i.",
"i.i.i.*.5.Z.b.X # - - - - - - - - - - # - - - * X b.A.6.*.i.i.i.",
"i.i.i.t.> y X c I G G G D H D G D D x D G H D H x X y , *.i.i.i.",
"i.i.i.*.| h.* G { ` A { { ` { { { { ! ` { A ) { J * h.| y.u.i.i.",
"i.i.i.*.@.x.- G { < Q ) ) ) ~ ` ) ) ) ) ) Q < { D - x.+.u.u.i.i.",
"i.i.i.*.| z.- G { ; e  . ./ & Q Q & / O.O.e , { D - x.o.u.i.i.i.",
"i.i.i.*._ l.- c Q R ,.L.L.F.g { ' g F.L.L.>.T { D - x.o.*.i.i.i.",
"i.i.i.*.E h.- D ` ) >.L.L.S.% < , O S.L.L.>.) ` F - g.E *.i.i.i.",
"i.i.i.*.L f.- G { ) ..D.S.V C.h.s.h.g S.D. .) { G - g.C *.u.i.i.",
"i.i.i.*.L f.- G { ` I v 9 a s.g.d.h.a r l J ` ` G - r.b *.i.i.i.",
"i.i.i.*.L f.- D { ` { { x a m.k.d.s.a c { ` { { G - g.L *.i.i.i.",
"i.i.i.*.g e.- G { ) H { c a s.d.e.{ < c { { G { F - g.L *.i.i.i.",
"i.i.i.*.L f.- G { { v m t a q.e.s.4.q t b v ` { G - g.L *.i.i.i.",
"i.i.i.*.L f.- G { m v.r.3.2 ;.;.-.;.2 4.r.v.b { G - g.L *.i.i.i.",
"i.i.i.*.L g.- J q b.2.i i 7 + # + + 8 i u 2.v.w G - f.L *.i.i.i.",
"i.i.i.*.P g.- G q <.G T v z 7 7 7 7 l m E D 1.q F * 9.L *.i.i.i.",
"i.i.i.*.P 4.% J v 3 3 0 t t t t t t t r 0 3 9 c G = r.L *.i.i.i.",
"i.i.i.*.J g.= G ` x k T ~ d Q Q Q Q d ) Y k x ` G - h.L *.i.i.i.",
"i.i.i.*.V 9.= H ` { { ` ` A 9 9 8 9 Z { { Q ` { D - 0.b *.i.i.i.",
"i.i.i.*.- p . G { U { { ' ' Q E ! E { { { Q ) { G . g = y.i.i.i.",
"i.i.i.*.5.K.F.o 2 1 3 1 > ; > > : : : > 2 5 5 1 X D.K.5.*.i.i.i.",
"i.i.i.*.8.H.B.j n.C.C.x.q.f.f.f.g.g.s.j.n.M.V.b.j C.H.8.*.i.i.i.",
"i.i.i.u.=.,._ + N K J L g K K K L L L L L L L A @ } @.=.u.i.i.i.",
"i.i.i.y.y.#.#.#.%.%.%.%.%.%.%.%.#.#.%.%.$.$.$.$.#.#.#.&.y.i.i.i.",
"i.i.y.y.y.y.y.y.y.y.y.y.y.y.y.y.y.y.y.y.y.y.y.y.y.y.y.y.y.y.i.i.",
"i.y.y.y.y.y.y.y.y.y.y.y.y.y.y.y.y.y.y.y.y.y.y.y.y.y.y.y.y.y.y.i.",
"y.y.y.y.y.y.y.y.y.y.y.y.y.y.y.y.y.y.y.y.y.y.y.y.y.y.y.y.y.y.y.y."
};
