/* XPM */
static char *_8c9bfb8d32c45aea0441de77972e509u9YB3Y6xpBDRN72K[] = {
/* columns rows colors chars-per-pixel */
"32 32 12 1 ",
"  c #211F30",
". c #9C1B4D",
"X c #CC3048",
"o c #E44A4A",
"O c #28860F",
"+ c #72A11D",
"@ c #E1CA33",
"# c #F18B72",
"$ c #A4CC42",
"% c #93C596",
"& c #9FCC98",
"* c #F7EC8A",
/* pixels */
"%%%%%%%%%%%%%%%%%%%%%%%%%%%%%%%%",
"&%%%%%%%%%%%%%%%%%%%%%%%%%%%%%%&",
"&&%%%%%%%%%%%%%%%%%%%%%%%%%%%%&&",
"&&&%%%%%%%%%%%%%%%%%%%%%%%%%%&&&",
"&&&&%%%%%%%%%%%%%%%%%%%%%%%%&&&&",
"&&&&&%%%%%%%%%%%%%%%%%%%%%%&&&&&",
"&&&&&&%%%%%%%%%%%%%%%%%%%%&&&&&&",
"&&&&&&&%%%%%%%%%%%%%%%%%%&&&&&&&",
"&&&&&&&&%%%%%%%%%%%%%%%%&&&&&&&&",
"&&&&&&&&&%%%%   %   %%%&&&&&&&&&",
"&&&&&&&&&&%%% $+ $+ %%&&&&&&&&&&",
"&&&&&&&&&&&%%% O O %%&&&&&&&&&&&",
"&&&&&&&&&&&&%  X.X  &&&&&&&&&&&&",
"&&&&&&&&&&&& #ooo### &&&&&&&&&&&",
"&&&&&&&&&&& #o*ooo*o# &&&&&&&&&&",
"&&&&&&&&&&& ooXoooXoo &&&&&&&&&&",
"&&&&&&&&&&& oooo*oooo &&&&&&&&&&",
"&&&&&&&&&&& X*ooXoo*X &&&&&&&&&&",
"&&&&&&&&&&&& XoooooX &&&&&&&&&&&",
"&&&&&&&&&&&& X@ooo@X &&&&&&&&&&&",
"&&&&&&&&&&&%% XXXXX %&&&&&&&&&&&",
"&&&&&&&&&&%%%% XXX %%%&&&&&&&&&&",
"&&&&&&&&&%%%%%%   %%%%%&&&&&&&&&",
"&&&&&&&&%%%%%%%%%%%%%%%%&&&&&&&&",
"&&&&&&&%%%%%%%%%%%%%%%%%%&&&&&&&",
"&&&&&&%%%%%%%%%%%%%%%%%%%%&&&&&&",
"&&&&&%%%%%%%%%%%%%%%%%%%%%%&&&&&",
"&&&&%%%%%%%%%%%%%%%%%%%%%%%%&&&&",
"&&&%%%%%%%%%%%%%%%%%%%%%%%%%%&&&",
"&&%%%%%%%%%%%%%%%%%%%%%%%%%%%%&&",
"&%%%%%%%%%%%%%%%%%%%%%%%%%%%%%%&",
"%%%%%%%%%%%%%%%%%%%%%%%%%%%%%%%%"
};
