/* XPM */
static char *_2562fff43ff4a228433116f26912312i14z0wgLXfTklE3t[] = {
/* columns rows colors chars-per-pixel */
"32 32 13 1 ",
"  c #211F30",
". c #A14744",
"X c #B96E54",
"o c #CF9E6E",
"O c #F2BC7E",
"+ c #2FACDA",
"@ c #6CD9F1",
"# c #93C596",
"$ c #9FCC98",
"% c #E4C997",
"& c #FBDFB1",
"* c #ACF7FA",
"= c white",
/* pixels */
"################################",
"$##############################$",
"$$############################$$",
"$$$##########################$$$",
"$$$$########################$$$$",
"$$$$$######################$$$$$",
"$$$$$$####################$$$$$$",
"$$$$$$$##################$$$$$$$",
"$$$$$$$$####           #$$$$$$$$",
"$$$$$$$$$#  **@@@@@@@** $$$$$$$$",
"$$$$$$$$$ *@@@@@@@@@@@@* $$$$$$$",
"$$$$$$$$ *@@+            $$$$$$$",
"$$$$$$$ *@@+ X.oooo%o%%oo $$$$$$",
"$$$$$$$ *@+ X.oooooo%o%%oo $$$$$",
"$$$$$$ @@@+ X.ooooooo%o%%o $$$$$",
"$$$$$$      X.oooooooo%o%% $$$$$",
"$$$$$ Xo%oX X.ooooooooo%o% $$$$$",
"$$$$$       X.oooooooooo%o $$$$$",
"$$$$$$ ++++ X.ooooooooooo% $$$$$",
"$$$$$$ +@@+ X.Xooo.....ooX $$$$$",
"$$$$$$ +@@@+ X.XXXXXXXXXX $$$$$$",
"$$$$$$$ +@@@+            $$$$$$$",
"$$$$$$$$ ++@@+++++++++++ $$$$$$$",
"$$$$$$$$   @@@@@@@@@@@   $$$$$$$",
"$$$$$$$ @@@+@@@@@==*@@@ + $$$$$$",
"$$$$$$ O  + @@@@@@@@@@@  O $$$$$",
"$$$$$# &&O @@@@@@@*@@@@ OO $$$$$",
"$$$$###   +@@@@@@@@@@@@   ##$$$$",
"$$$###### +@@        @@ #####$$$",
"$$####### +@+ ##### +@+ ######$$",
"$######## ++ ###### ++ ########$",
"##########  ########  ##########"
};
