/* XPM */
static char *faa53f46d30b464aa3a5166f54dc6c99IsyzGmw9H7bxbgO7[] = {
/* columns rows colors chars-per-pixel */
"32 32 13 1 ",
"  c #211F30",
". c #A14744",
"X c #B96E54",
"o c #CF9E6E",
"O c #F2BC7E",
"+ c #2FACDA",
"@ c #6CD9F1",
"# c #93C596",
"$ c #9FCC98",
"% c #E4C997",
"& c #FBDFB1",
"* c #ACF7FA",
"= c white",
/* pixels */
"################################",
"$##############################$",
"$$############################$$",
"$$$##########################$$$",
"$$$$########################$$$$",
"$$$$$######################$$$$$",
"$$$$$$####################$$$$$$",
"$$$$$$$##################$$$$$$$",
"$$$$$$$$#           ####$$$$$$$$",
"$$$$$$$$ **@@@@@@@**  #$$$$$$$$$",
"$$$$$$$ *@@@@@@@@@@@@* $$$$$$$$$",
"$$$$$$$            +@@* $$$$$$$$",
"$$$$$$ oo%%o%oooo.X +@@* $$$$$$$",
"$$$$$ oo%%o%oooooo.X +@* $$$$$$$",
"$$$$$ o%%o%ooooooo.X +@@@ $$$$$$",
"$$$$$ %%o%oooooooo.X      $$$$$$",
"$$$$$ %o%ooooooooo.X Xo%oX $$$$$",
"$$$$$ o%oooooooooo.X       $$$$$",
"$$$$$ %ooooooooooo.X ++++ $$$$$$",
"$$$$$ Xoo.....oooX.X +@@+ $$$$$$",
"$$$$$$ XXXXXXXXXX.X +@@@+ $$$$$$",
"$$$$$$$            +@@@+ $$$$$$$",
"$$$$$$$ +++++++++++@@++ $$$$$$$$",
"$$$$$$$   @@@@@@@@@@@   $$$$$$$$",
"$$$$$$ + @@@*==@@@@@+@@@ $$$$$$$",
"$$$$$ O  @@@@@@@@@@@ +  O $$$$$$",
"$$$$$ OO @@@@*@@@@@@@ O&& #$$$$$",
"$$$$##   @@@@@@@@@@@@+   ###$$$$",
"$$$##### @@        @@+ ######$$$",
"$$###### +@+ ##### +@+ #######$$",
"$######## ++ ###### ++ ########$",
"##########  ########  ##########"
};
