/* XPM */
static char *result[] = {
/* columns rows colors chars-per-pixel */
"32 32 5 1 ",
"  c #613F49",
". c #D5CC9E",
"X c #D6CE9F",
"o c #D9D4A3",
"O c #F1F1F1",
/* pixels */
"......XooooooooX...........XoooX",
"X......XooOOOOOOOOOOOO......Xooo",
"oX......XoOOOOOOOOOOOO.......Xoo",
"ooX......XOOOOOOOOOOOO........Xo",
"oooX......OOOOOOOOOOOO.........X",
"XoooX..OOOOOOOOOOOOOOOOOO.......",
".XoooX.OOOOOOOOOOOOOOOOOO.......",
"..XoooXOOOOOOOOOOOOOOOOOO.......",
"...OOOOOOOOOOO    OOOOOOOOOOO...",
"...OOOOOOOOOOO    OOOOOOOOOOO...",
"...OOOOOOOOOOO    OOOOOOOOOOO...",
"...OOOOOOOOOOO    OOOOOOOOOOO...",
"...OOOOOOOOOOO....OOOOOOOOOOO...",
"...OOOOOOOOOOO....OOOOOOOOOOO...",
"...OOOOOOOOOOO....OOOOOOOOOOOX..",
"...OOOOOOOOOOOX...OOOOOOOOOOOoX.",
"...OOOOOOOOOOOoX..OOOOOOOOOOOooX",
"X..OOOOOOOOOOOooX.OOOOOOOOOOOooo",
"oX.OOOOOOOOOOOoooXOOOOOOOOOOOooo",
"ooXOOOOOOOOOOOXoooOOOOOOOOOOOooo",
"ooo    OOOOOOOOOOOOOOOOOO    ooo",
"ooo    OOOOOOOOOOOOOOOOOO    ooo",
"ooo    OOOOOOOOOOOOOOOOOO    ooo",
"ooooooX   OOOOOOOOOOOO   ....Xoo",
"ooooooo   OOOOOOOOOOOO   .....Xo",
"ooooooo   OOOOOOOOOOOO   ......X",
"Xoooooo   OOOOOOOOOOOO   X......",
".Xoooooooo            XoooX.....",
"..Xooooooo            .XoooX....",
"...Xoooooo            ..XoooX...",
"....Xooooo            ...XoooX..",
".....XooooooooX...........XoooX."
};
