/* XPM */
static char *result[] = {
/* columns rows colors chars-per-pixel */
"32 32 5 1 ",
"  c #613F49",
". c #D5CC9E",
"X c #D6CE9F",
"o c #D9D4A3",
"O c #F1F1F1",
/* pixels */
"......XooooooooX...........XoooX",
"X......XooooooooOOOOOOO.....Xooo",
"oX......XoooooooOOOOOOO......Xoo",
"ooX......XooooooOOOOOOO.......Xo",
"oooX......XoOOOOOOOOOOO........X",
"XoooX......XOOOOOOOOOOO.........",
".XoooX......OOOOOOOOOOO.........",
"..XoooX.....OOOOOOOOOOO.........",
"...XoooX.OOOOOOOOOOOOOOX........",
"....XoooXOOOOOOOOOOOOOOoX.......",
".....XoooOOOOOOOOOOOOOOooX......",
"......XooOOOOOOOOOOOOOOoooX.....",
".......XoOOOOOOOOOOOOOOooooX....",
"........XOOOOOOOOOOOOOOoooooX...",
".........OOOOOOOOOOOOOOooooooX..",
".........OOOOOOOOOOOOOOoooooooX.",
".........OOOOOOOOOOOOOOooooooooX",
"X........OOOOOOOOOOOOOOXoooooooo",
"oX.......OOOOOOOOOOOOOO.Xooooooo",
"ooX......OOOOOOOOOOOOOO..Xoooooo",
"oooX.....OOOOOOOOOOOOOO...Xooooo",
"ooooX....OOOOOOOOOOOOOO....Xoooo",
"oooooX...OOOOOOOOOOOOOO.....Xooo",
"ooooooX..OOOOOOOOOOOOOO......Xoo",
"oooooooX.OOOOOOOOOOOOOOX......Xo",
"ooooooooXOOOOOOOOOOOOOOoX......X",
"XooooooooOOOOOOOOOOOOOOooX......",
".Xooooooo              oooX.....",
"..Xoooooo              XoooX....",
"...Xooooo              .XoooX...",
"....XooooooooX...........XoooX..",
".....XooooooooX...........XoooX."
};
