/* XPM */
static char *result[] = {
/* columns rows colors chars-per-pixel */
"32 32 5 1 ",
"  c #613F49",
". c #D5CC9E",
"X c #D6CE9F",
"o c #D9D4A3",
"O c #F1F1F1",
/* pixels */
"......XooooooooX...........XoooX",
"X......XooooooooX...........Xooo",
"oX......OOOOOOOOOOOOOOOOO....Xoo",
"ooX.....OOOOOOOOOOOOOOOOO.....Xo",
"oooX....OOOOOOOOOOOOOOOOO......X",
"XoooX...OOOOOOOOOOOOOOOOO.......",
".XooOOOOOOOOOOOOOOOOOOOOOOOOO...",
"..XoOOOOOOOOOOOOOOOOOOOOOOOOO...",
"...XOOOOOOOOOOOOOOOOOOOOOOOOO...",
"....OOOOOOOOOOO   OOOOOOOOOOO...",
"....OOOOOOOOOOO   OOOOOOOOOOO...",
"....OOOOOOOOOOO   OOOOOOOOOOO...",
"....OOOOOOOOOOO   OOOOOOOOOOO...",
"....OOOOOOO    OOOOOOOOOOOOOO...",
"....OOOOOOO    OOOOOOOOOOOOOOX..",
"....OOOOOOO    OOOOOOOOOOOOOOoX.",
"....       OOOOOOOOOOOOOOOOOOooX",
"X...       OOOOOOOOOOOOOOOOOOooo",
"oX..       OOOOOOOOOOOOOOOOOOooo",
"ooX.       OOOOOOOOOOOOOOOOOOooo",
"oooX....OOOOOOOOOOOOOOOOO    ooo",
"ooooX...OOOOOOOOOOOOOOOOO    ooo",
"oooooX..OOOOOOOOOOOOOOOOO    ooo",
"ooooOOOOOOOOOOOOOOOOOOOOOOOOOXoo",
"ooooOOOOOOOOOOOOOOOOOOOOOOOOO.Xo",
"ooooOOOOOOOOOOOOOOOOOOOOOOOOO..X",
"XoooOOOOOOOOOOOOOOOOOOOOOOOOO...",
".Xoo                         ...",
"..Xo                         ...",
"...X                         ...",
"....                         X..",
".....XooooooooX...........XoooX."
};
