/* XPM */
static char *result[] = {
/* columns rows colors chars-per-pixel */
"32 32 5 1 ",
"  c #613F49",
". c #D5CC9E",
"X c #D6CE9F",
"o c #D9D4A3",
"O c #F1F1F1",
/* pixels */
"......XooooooooX...........XoooX",
"X......XooooooooX...........Xooo",
"oX......XooooooooX...........Xoo",
"ooX..OOOOOOOOOOOOOOOOOOOOOOO..Xo",
"oooX.OOOOOOOOOOOOOOOOOOOOOOO...X",
"XoooXOOOOOOOOOOOOOOOOOOOOOOO....",
".XoooOOOOOOOOOOOOOOOOOOOOOOO....",
"..XooOOOOOOOOOOOOOOOOOOOO   ....",
"...XoOOOOOOOOOOOOOOOOOOOO   ....",
"....XOOOOOOOOOOOOOOOOOOOO   ....",
".....       OOOOOOOOOOOOOOOO....",
".....       OOOOOOOOOOOOOOOO....",
".....       OOOOOOOOOOOOOOOO....",
"........XOOOOOOOOOOOOOOOOOOOX...",
".........OOOOOOOOOOOOOOOOOOOoX..",
".........OOOOOOOOOOOOOOOOOOOooX.",
".........         OOOOOOOOOOoooX",
"X........         OOOOOOOOOOoooo",
"oX.......         OOOOOOOOOOoooo",
"ooX......         OOOOOOOOOOoooo",
"oooX.OOOOOOOOOOOOOOOOOOOOOOOoooo",
"ooooXOOOOOOOOOOOOOOOOOOOOOOOoooo",
"oooooOOOOOOOOOOOOOOOOOOOOOOOXooo",
"ooooo    OOOOOOOOOOOOOOOO   .Xoo",
"ooooo    OOOOOOOOOOOOOOOO   ..Xo",
"ooooo    OOOOOOOOOOOOOOOO   ...X",
"Xoooooooo                X......",
".Xooooooo                oX.....",
"..Xoooooo                ooX....",
"...Xooooo                oooX...",
"....XooooooooX...........XoooX..",
".....XooooooooX...........XoooX."
};
