/* XPM */
static char *result[] = {
/* columns rows colors chars-per-pixel */
"32 32 5 1 ",
"  c #613F49",
". c #D5CC9E",
"X c #D6CE9F",
"o c #D9D4A3",
"O c #F1F1F1",
/* pixels */
"......XooooooooX...........XoooX",
"X......XooooooooX...........Xooo",
"oX......XooooooooXOOOOOOOOOOOXoo",
"ooX......XooooooooOOOOOOOOOOO.Xo",
"oooX......XoooooooOOOOOOOOOOO..X",
"XoooX......XooooooOOOOOOOOOOO...",
".XoooX......XooOOOOOOOOOOOOOO...",
"..XoooX......XoOOOOOOOOOOOOOO...",
"...XoooX......XOOOOOOOOOOOOOO...",
"....XoooX..OOOOOOO    OOOOOOO...",
".....XoooX.OOOOOOO    OOOOOOO...",
"......XoooXOOOOOOO    OOOOOOO...",
".......XoooOOOOOOO    OOOOOOO...",
"........OOOOOOOOOO.XooOOOOOOO...",
"........OOOOOOOOOO..XoOOOOOOOX..",
"........OOOOOOOOOO...XOOOOOOOoX.",
"........OOOOOOOOOO....OOOOOOOooX",
"X...OOOOOOOOOOOOOOOOOOOOOOOOOooo",
"oX..OOOOOOOOOOOOOOOOOOOOOOOOOooo",
"ooX.OOOOOOOOOOOOOOOOOOOOOOOOOooo",
"oooXOOOOOOOOOOOOOOOOOOOOOOOOOooo",
"ooooOOOOOOOOOOOOOOOOOOOOOOOOOooo",
"ooooOOOOOOOOOOOOOOOOOOOOOOOOOooo",
"ooooOOOOOOOOOOOOOOOOOOOOOOOOOXoo",
"oooo              OOOOOOOOOOO.Xo",
"oooo              OOOOOOOOOOO..X",
"Xooo              OOOOOOOOOOO...",
".XooooooooX.......           ...",
"..XooooooooX......           ...",
"...XooooooooX.....           ...",
"....XooooooooX....           X..",
".....XooooooooX...........XoooX."
};
