/* XPM */
static char *result[] = {
/* columns rows colors chars-per-pixel */
"32 32 5 1 ",
"  c #613F49",
". c #D5CC9E",
"X c #D6CE9F",
"o c #D9D4A3",
"O c #F1F1F1",
/* pixels */
"......XooooooooX...........XoooX",
"X......XooooooooX...........Xooo",
"oX......XooooooooX...........Xoo",
"ooX..OOOOOOOOOOOOOOOOOOOOOOO..Xo",
"oooX.OOOOOOOOOOOOOOOOOOOOOOO...X",
"XoooXOOOOOOOOOOOOOOOOOOOOOOO....",
".XoooOOOOOOOOOOOOOOOOOOOOOOO....",
"..XooOOOOOOOOOOOOOOOOO      ....",
"...XoOOOOOOOOOOOOOOOOO      ....",
"....XOOOOOOOOOOOOOOOOOOOOOOO....",
".....OOOOOOOOOOOOOOOOOOOOOOO....",
".....OOOOOOOOOOOOOOOOOOOOOOO....",
".....OOOOOOOOOOOOOOOOOOOOOOO....",
".....    OOOOOOOOOOOOOOOOOOOX...",
".....    OOOOOOOOOOOOOOOOOOOoX..",
".....    OOOOOOOOOOOOOOOOOOOooX.",
".....    OOOOOOOOOOOOOOOOOOOoooX",
"X........      OOOOOOOOOOOOOoooo",
"oX.......      OOOOOOOOOOOOOoooo",
"ooX......      OOOOOOOOOOOOOoooo",
"oooX.OOOOOOOOOOOOOOOOOOOOOOOoooo",
"ooooXOOOOOOOOOOOOOOOOOOOOOOOoooo",
"ooooo    OOOOOOOOOOOOOOO    Xooo",
"ooooo    OOOOOOOOOOOOOOO    .Xoo",
"ooooo    OOOOOOOOOOOOOOO    ..Xo",
"ooooo    OOOOOOOOOOOOOOO    ...X",
"Xoooooooo               oX......",
".Xooooooo               ooX.....",
"..Xoooooo               oooX....",
"...Xooooo               XoooX...",
"....XooooooooX...........XoooX..",
".....XooooooooX...........XoooX."
};
