/* XPM */
static char *result[] = {
/* columns rows colors chars-per-pixel */
"32 32 5 1 ",
"  c #613F49",
". c #D5CC9E",
"X c #D6CE9F",
"o c #D9D4A3",
"O c #F1F1F1",
/* pixels */
"......XooooooooX...........XoooX",
"X......XooooooooX...........Xooo",
"oX......XooOOOOOOOOOOOOOOOOO.Xoo",
"ooX......XoOOOOOOOOOOOOOOOOO..Xo",
"oooX......XOOOOOOOOOOOOOOOOO...X",
"XoooX......OOOOOOOOOOOOOOOOO....",
".XoooX..OOOOOOOOOOOOOOOOO   ....",
"..XoooX.OOOOOOOOOOOOOOOOO   ....",
"...XoooXOOOOOOOOOOOOOOOOO   ....",
"....OOOOOOOOOOOOOOOOO    .......",
"....OOOOOOOOOOOOOOOOO    X......",
"....OOOOOOOOOOOOOOOOO    oX.....",
"....OOOOOOOOOOOOOOOOO    ooX....",
"....OOOOOOOOOOO   OOOOOOOOOOX...",
"....OOOOOOOOOOO   OOOOOOOOOOoX..",
"....OOOOOOOOOOO   OOOOOOOOOOooX.",
"....OOOOOOOOOOOX..OOOOOOOOOOoooX",
"X...OOOOOOOOOOOoX.OOOOOOOOOOoooo",
"oX..OOOOOOOOOOOooXOOOOOOOOOOoooo",
"ooX.OOOOOOOOOOOOOOOOOOOOOOOOoooo",
"oooXOOOOOOOOOOOOOOOOOOOOOOOOoooo",
"ooooOOOOOOOOOOOOOOOOOOOOOOOOoooo",
"ooooOOOOOOOOOOOOOOOOOOOOOOOOXooo",
"oooo    OOOOOOOOOOOOOOOOO   .Xoo",
"oooo    OOOOOOOOOOOOOOOOO   ..Xo",
"oooo    OOOOOOOOOOOOOOOOO   ...X",
"Xooooooo                 X......",
".Xoooooo                 oX.....",
"..Xooooo                 ooX....",
"...Xoooo                 oooX...",
"....XooooooooX...........XoooX..",
".....XooooooooX...........XoooX."
};
