/* XPM */
static char *result[] = {
/* columns rows colors chars-per-pixel */
"32 32 5 1 ",
"  c #613F49",
". c #D5CC9E",
"X c #D6CE9F",
"o c #D9D4A3",
"O c #F1F1F1",
/* pixels */
"......XooooooooX...........XoooX",
"X......XooooooooX...........Xooo",
"oX..OOOOOOOOOOOOOOOOOOOOOOOOOXoo",
"ooX.OOOOOOOOOOOOOOOOOOOOOOOOO.Xo",
"oooXOOOOOOOOOOOOOOOOOOOOOOOOO..X",
"XoooOOOOOOOOOOOOOOOOOOOOOOOOO...",
".XooOOOOOOOOOOOOOOOOOOOOOOOOO...",
"..XoOOOOOOOOOOOOOOOOOOOOOOOOO...",
"...XOOOOOOOOOOOOOOOOOOOOOOOOO...",
"....           OOOOOOOOOOOOOO...",
"....           OOOOOOOOOOOOOO...",
"....           OOOOOOOOOOOOOO...",
"....           OOOOOOOOOOOOOO...",
"........XooOOOOOOOOOOOOOO    ...",
".........XoOOOOOOOOOOOOOO    X..",
"..........XOOOOOOOOOOOOOO    oX.",
".......OOOOOOOOOOOOOO    ooooooX",
"X......OOOOOOOOOOOOOO    ooooooo",
"oX.....OOOOOOOOOOOOOO    ooooooo",
"ooX.OOOOOOOOOOOOOO   ....Xoooooo",
"oooXOOOOOOOOOOOOOO   .....Xooooo",
"ooooOOOOOOOOOOOOOO   ......Xoooo",
"ooooOOOOOOOOOOOOOO   X......Xooo",
"ooooOOOOOOOOOOO   XoooX......Xoo",
"ooooOOOOOOOOOOO   .XoooX......Xo",
"ooooOOOOOOOOOOO   ..XoooX......X",
"XoooOOOOOOOOOOO   ...XoooX......",
".Xoo           .......XoooX.....",
"..Xo           ........XoooX....",
"...X           .........XoooX...",
"....XooooooooX...........XoooX..",
".....XooooooooX...........XoooX."
};
