/* XPM */
static char *result[] = {
/* columns rows colors chars-per-pixel */
"32 32 5 1 ",
"  c #613F49",
". c #D5CC9E",
"X c #D6CE9F",
"o c #D9D4A3",
"O c #F1F1F1",
/* pixels */
"......XooooooooX...........XoooX",
"X......XooooooooX...........Xooo",
"oX......XOOOOOOOOOOOOOOOO....Xoo",
"ooX......OOOOOOOOOOOOOOOO.....Xo",
"oooX.....OOOOOOOOOOOOOOOO......X",
"XoooX....OOOOOOOOOOOOOOOO.......",
".XoooOOOOOOOOOOO  OOOOOOOOO.....",
"..XooOOOOOOOOOOO  OOOOOOOOO.....",
"...XoOOOOOOOOOOO  OOOOOOOOO.....",
"....XOOOOOOOOOOO  OOOOOOOOO.....",
".....OOOOOOOOOOOXoOOOOOOOOO.....",
".....OOOOOOOOOOO.XOOOOOOOOO.....",
".....OOOOOOOOOOO..OOOOOOOOOX....",
".....OOOOOOOOOOO..OOOOOOOOOoX...",
".....    OOOOOOOOOOOOOOOO  ooX..",
".....    OOOOOOOOOOOOOOOO  oooX.",
".....OOOOOOOOOOO  OOOOOOOOOooooX",
"X....OOOOOOOOOOO  OOOOOOOOOooooo",
"oX...OOOOOOOOOOO  OOOOOOOOOooooo",
"ooX..OOOOOOOOOOOooOOOOOOOOOooooo",
"oooX.OOOOOOOOOOOooOOOOOOOOOooooo",
"ooooXOOOOOOOOOOOXoOOOOOOOOOXoooo",
"oooooOOOOOOOOOOO.XOOOOOOOOO.Xooo",
"oooooOOOOOOOOOOO..OOOOOOOOO..Xoo",
"ooooo    OOOOOOOOOOOOOOOO  ...Xo",
"ooooo    OOOOOOOOOOOOOOOO  ....X",
"Xoooo    OOOOOOOOOOOOOOOO  .....",
".Xooooooo                oX.....",
"..Xoooooo                ooX....",
"...Xooooo                oooX...",
"....Xoooo                XoooX..",
".....XooooooooX...........XoooX."
};
