/* XPM */
static char *result[] = {
/* columns rows colors chars-per-pixel */
"32 32 5 1 ",
"  c #613F49",
". c #D5CC9E",
"X c #D6CE9F",
"o c #D9D4A3",
"O c #F1F1F1",
/* pixels */
"......XooooooooX...........XoooX",
"X......XooooooooX...........Xooo",
"oX......XooooooooX...........Xoo",
"ooX....OOOOOOOOOOOOOOOOO......Xo",
"oooX...OOOOOOOOOOOOOOOOO.......X",
"XoooX..OOOOOOOOOOOOOOOOO........",
".XooOOOOOOOOOOOOOOOOOOOOOOOO....",
"..XoOOOOOOOOOOOOOOOOOOOOOOOO....",
"...XOOOOOOOOOOOOOOOOOOOOOOOO....",
"....OOOOOOOOOOOOOOOOOOOOOOOO....",
"....OOOOOOOOOO   OOOOOOOOOOO....",
"....OOOOOOOOOO   OOOOOOOOOOO....",
"....OOOOOOOOOO   OOOOOOOOOOO....",
"....OOOOOOOOOO...OOOOOOOOOOOX...",
"....OOOOOOOOOO...OOOOOOOOOOOoX..",
"....OOOOOOOOOOX..OOOOOOOOOOOooX.",
"....OOOOOOOOOOoX.OOOOOOOOOOOoooX",
"X...       OOOOOOOOOOOOOOOOOoooo",
"oX..       OOOOOOOOOOOOOOOOOoooo",
"ooX.       OOOOOOOOOOOOOOOOOoooo",
"oooX...OOOOOOOOOOOOOOOOO    oooo",
"ooooX..OOOOOOOOOOOOOOOOO    oooo",
"oooooX.OOOOOOOOOOOOOOOOO    Xooo",
"ooooOOOOOOOOOOOOOOOOO   .....Xoo",
"ooooOOOOOOOOOOOOOOOOO   ......Xo",
"ooooOOOOOOOOOOOOOOOOO   X......X",
"XoooOOOOOOOOOOOOOOOOO   oX......",
".Xoo                 .XoooX.....",
"..Xo                 ..XoooX....",
"...X                 ...XoooX...",
"....XooooooooX...........XoooX..",
".....XooooooooX...........XoooX."
};
