/* XPM */
static char *result[] = {
/* columns rows colors chars-per-pixel */
"32 32 3 1 ",
"  c #D5B195",
". c #D7BA99",
"X c #D8BD9B",
/* pixels */
"XXXXXXXXXXXXXXXXXXXXXXXXXXXXXXXX",
"XXXXXXXXXXXXXXX..XXXXXXXXXXXXXXX",
"XXXXXXXXXXXXXX.  .XXXXXXXXXXXXXX",
"XXXXXXXXXXXXX.    .XXXXXXXXXXXXX",
"XXXXXXXXXXXX.      .XXXXXXXXXXXX",
"XXXXXXXXXXX.        .XXXXXXXXXXX",
"XXXXXXXXXX.          .XXXXXXXXXX",
"XXXXXXXXX.            .XXXXXXXXX",
"XXXXXXXX.              .XXXXXXXX",
"XXXXXXX.                .XXXXXXX",
"XXXXXX.                  .XXXXXX",
"XXXXX.                    .XXXXX",
"XXXX.                      .XXXX",
"XXX.                        .XXX",
"XX.                          .XX",
"X.                            .X",
".              ..              .",
"              .XX.              ",
"             .XXXX.             ",
"            .XXXXXX.            ",
"           .XXXXXXXX.           ",
"          .XXXXXXXXXX.          ",
"         .XXXXXXXXXXXX.         ",
"        .XXXXXXXXXXXXXX.        ",
"       .XXXXXXXXXXXXXXXX.       ",
"      .XXXXXXXXXXXXXXXXXX.      ",
"     .XXXXXXXXXXXXXXXXXXXX.     ",
"    .XXXXXXXXXXXXXXXXXXXXXX.    ",
"   .XXXXXXXXXXXXXXXXXXXXXXXX.   ",
"  .XXXXXXXXXXXXXXXXXXXXXXXXXX.  ",
" .XXXXXXXXXXXXXXXXXXXXXXXXXXXX. ",
".XXXXXXXXXXXXXXXXXXXXXXXXXXXXXX."
};
