/* XPM */
static char *result[] = {
/* columns rows colors chars-per-pixel */
"32 32 3 1 ",
"  c #D1A9BF",
". c #D4AABF",
"X c #DCAEC1",
/* pixels */
"               .XXXXXXXXXXXXXXX.",
"              .XXXXXXXXXXXXXXX. ",
"             .XXXXXXXXXXXXXXX.  ",
"            .XXXXXXXXXXXXXXX.   ",
"           .XXXXXXXXXXXXXXX.    ",
"          .XXXXXXXXXXXXXXX.     ",
"         .XXXXXXXXXXXXXXX.      ",
"        .XXXXXXXXXXXXXXX.       ",
"       .XXXXXXXXXXXXXXX.        ",
"      .XXXXXXXXXXXXXXX.         ",
"     .XXXXXXXXXXXXXXX.          ",
"    .XXXXXXXXXXXXXXX.           ",
"   .XXXXXXXXXXXXXXX.            ",
"  .XXXXXXXXXXXXXXX.             ",
" .XXXXXXXXXXXXXXX.              ",
".XXXXXXXXXXXXXXX.               ",
"XXXXXXXXXXXXXXX.               .",
"XXXXXXXXXXXXXX.               .X",
"XXXXXXXXXXXXX.               .XX",
"XXXXXXXXXXXX.               .XXX",
"XXXXXXXXXXX.               .XXXX",
"XXXXXXXXXX.               .XXXXX",
"XXXXXXXXX.               .XXXXXX",
"XXXXXXXX.               .XXXXXXX",
"XXXXXXX.               .XXXXXXXX",
"XXXXXX.               .XXXXXXXXX",
"XXXXX.               .XXXXXXXXXX",
"XXXX.               .XXXXXXXXXXX",
"XXX.               .XXXXXXXXXXXX",
"XX.               .XXXXXXXXXXXXX",
"X.               .XXXXXXXXXXXXXX",
".               .XXXXXXXXXXXXXXX"
};
