/* XPM */
static char *result[] = {
/* columns rows colors chars-per-pixel */
"32 32 3 1 ",
"  c #D5CC9E",
". c #D6CE9F",
"X c #D9D4A3",
/* pixels */
"      .XXXXXXXX.           .XXX.",
".      .XXXXXXXX.           .XXX",
"X.      .XXXXXXXX.           .XX",
"XX.      .XXXXXXXX.           .X",
"XXX.      .XXXXXXXX.           .",
".XXX.      .XXXXXXXX.           ",
" .XXX.      .XXXXXXXX.          ",
"  .XXX.      .XXXXXXXX.         ",
"   .XXX.      .XXXXXXXX.        ",
"    .XXX.      .XXXXXXXX.       ",
"     .XXX.      .XXXXXXXX.      ",
"      .XXX.      .XXXXXXXX.     ",
"       .XXX.      .XXXXXXXX.    ",
"        .XXX.      .XXXXXXXX.   ",
"         .XXX.      .XXXXXXXX.  ",
"          .XXX.      .XXXXXXXX. ",
"           .XXX.      .XXXXXXXX.",
".           .XXX.      .XXXXXXXX",
"X.           .XXX.      .XXXXXXX",
"XX.           .XXX.      .XXXXXX",
"XXX.           .XXX.      .XXXXX",
"XXXX.           .XXX.      .XXXX",
"XXXXX.           .XXX.      .XXX",
"XXXXXX.           .XXX.      .XX",
"XXXXXXX.           .XXX.      .X",
"XXXXXXXX.           .XXX.      .",
".XXXXXXXX.           .XXX.      ",
" .XXXXXXXX.           .XXX.     ",
"  .XXXXXXXX.           .XXX.    ",
"   .XXXXXXXX.           .XXX.   ",
"    .XXXXXXXX.           .XXX.  ",
"     .XXXXXXXX.           .XXX. "
};
