/* XPM */
static char *result[] = {
/* columns rows colors chars-per-pixel */
"32 32 79 1 ",
"  c black",
". c #010101",
"X c #020202",
"o c gray1",
"O c #040404",
"+ c gray2",
"@ c gray3",
"# c #0B0B0B",
"$ c gray5",
"% c #0E0E0E",
"& c gray6",
"* c #101010",
"= c #111010",
"- c gray7",
"; c #131313",
": c gray9",
"> c gray10",
", c #1C1A19",
"< c #1C191A",
"1 c #1C1A1A",
"2 c #1E1E1E",
"3 c gray12",
"4 c #343434",
"5 c #353535",
"6 c gray21",
"7 c #373737",
"8 c gray22",
"9 c #393939",
"0 c #3C3C3C",
"q c gray24",
"w c #3E3E3E",
"e c #3F3F3F",
"r c gray25",
"t c #414141",
"y c #4F4D4D",
"u c gray31",
"i c gray32",
"p c #555555",
"a c #585858",
"s c #5B5B5B",
"d c #5F5F5F",
"f c #606060",
"g c DimGray",
"h c #6A6A6A",
"j c #717171",
"k c gray45",
"l c gray46",
"z c #777777",
"x c #777778",
"c c gray47",
"v c #797979",
"b c #7B7B7B",
"n c #808080",
"m c #B9B9B9",
"M c gray73",
"N c #BBBBBB",
"B c gray75",
"V c #C0C0C0",
"C c gray76",
"Z c #C3C3C3",
"A c gray77",
"S c #C8C8C8",
"D c #CBCBCB",
"F c gray91",
"G c #E9E9E9",
"H c #ECECEC",
"J c gray93",
"K c #EEEEEE",
"L c #EFEFEF",
"P c #F1F1F1",
"I c gray95",
"U c #F8F8F8",
"Y c #FBFBFB",
"T c #FDFDFD",
"R c #FEFDFE",
"E c #FEFDFF",
"W c #FEFEFE",
"Q c #FEFFFF",
"! c white",
/* pixels */
"                                ",
"                                ",
"                                ",
"                                ",
"                                ",
"                                ",
"                                ",
"            :dfdp.*dffadfff*    ",
"          .@VW!P0o+W!YaT!!!4    ",
"          ;BW!LwX OWHs2W!!!4    ",
"         %CW!L6.  OUuX>W!!!4    ",
"        @ZW!Iq.   ouX >T!!!5    ",
"      .-C!!K7.       &DW!Wj.    ",
"      $AW!P9.       %NW!Wn.     ",
"     ;SW!J8.       *mW!!z.      ",
"    :MW!Wi*$$$$$#X.NW!Wv. .X    ",
"    rW!!!!!!!!!!W3OW!!F  Xh5    ",
"    r!!!!!!!!!!!!3OW!!G..l!4    ",
"    t!!!!!!!WQ!!!3OW!!G.kW!4    ",
"    ;eeeeeeeyT!!!3oW!!GgT!!4    ",
"            1R!!!3        ..    ",
"            ,T!!!3              ",
"            <E!!!3              ",
"            =xccb-              ",
"                                ",
"                                ",
"                                ",
"                                ",
"                                ",
"                                ",
"                                ",
"                                "
};
