/* XPM */
static char *result[] = {
/* columns rows colors chars-per-pixel */
"32 32 3 1 ",
"  c gray76",
". c gray79",
"X c gray80",
/* pixels */
"XXXXXXX..XXXXXXXXXXXXXX..XXXXXXX",
"XXXXXX.  .XXXXXXXXXXXX.  .XXXXXX",
"XXXXX.    .XXXXXXXXXX.    .XXXXX",
"XXXX.      .XXXXXXXX.      .XXXX",
"XXX.        .XXXXXX.        .XXX",
"XX.          .XXXX.          .XX",
"X.            .XX.            .X",
".              ..              .",
".              ..              .",
"X.            .XX.            .X",
"XX.          .XXXX.          .XX",
"XXX.        .XXXXXX.        .XXX",
"XXXX.      .XXXXXXXX.      .XXXX",
"XXXXX.    .XXXXXXXXXX.    .XXXXX",
"XXXXXX.  .XXXXXXXXXXXX.  .XXXXXX",
"XXXXXXX..XXXXXXXXXXXXXX..XXXXXXX",
"XXXXXXX..XXXXXXXXXXXXXX..XXXXXXX",
"XXXXXX.  .XXXXXXXXXXXX.  .XXXXXX",
"XXXXX.    .XXXXXXXXXX.    .XXXXX",
"XXXX.      .XXXXXXXX.      .XXXX",
"XXX.        .XXXXXX.        .XXX",
"XX.          .XXXX.          .XX",
"X.            .XX.            .X",
".              ..              .",
".              ..              .",
"X.            .XX.            .X",
"XX.          .XXXX.          .XX",
"XXX.        .XXXXXX.        .XXX",
"XXXX.      .XXXXXXXX.      .XXXX",
"XXXXX.    .XXXXXXXXXX.    .XXXXX",
"XXXXXX.  .XXXXXXXXXXXX.  .XXXXXX",
"XXXXXXX..XXXXXXXXXXXXXX..XXXXXXX"
};
