/* XPM */
static char *result[] = {
/* columns rows colors chars-per-pixel */
"32 32 5 1 ",
"  c #AABACE",
". c #AEBED0",
"X c #B3C2D1",
"o c #B7C7D3",
"O c #BCCBD5",
/* pixels */
"OOOOOOOOOOOOOOOO                ",
"OOOOOOOOOOOOOOOO                ",
"OOoXXXXXXXXXXoOO  .XXXXXXXXXX.  ",
"OOX          XOO  XOOOOOOOOOOX  ",
"OOX          XOO  XOOOOOOOOOOX  ",
"OOX          XOO  XOOOOOOOOOOX  ",
"OOX          XOO  XOOOOOOOOOOX  ",
"OOX          XOO  XOOOOOOOOOOX  ",
"OOX          XOO  XOOOOOOOOOOX  ",
"OOX          XOO  XOOOOOOOOOOX  ",
"OOX          XOO  XOOOOOOOOOOX  ",
"OOX          XOO  XOOOOOOOOOOX  ",
"OOX          XOO  XOOOOOOOOOOX  ",
"OOoXXXXXXXXXXoOO  .XXXXXXXXXX.  ",
"OOOOOOOOOOOOOOOO                ",
"OOOOOOOOOOOOOOOO                ",
"                OOOOOOOOOOOOOOOO",
"                OOOOOOOOOOOOOOOO",
"  .XXXXXXXXXX.  OOoXXXXXXXXXXoOO",
"  XOOOOOOOOOOX  OOX          XOO",
"  XOOOOOOOOOOX  OOX          XOO",
"  XOOOOOOOOOOX  OOX          XOO",
"  XOOOOOOOOOOX  OOX          XOO",
"  XOOOOOOOOOOX  OOX          XOO",
"  XOOOOOOOOOOX  OOX          XOO",
"  XOOOOOOOOOOX  OOX          XOO",
"  XOOOOOOOOOOX  OOX          XOO",
"  XOOOOOOOOOOX  OOX          XOO",
"  XOOOOOOOOOOX  OOX          XOO",
"  .XXXXXXXXXX.  OOoXXXXXXXXXXoOO",
"                OOOOOOOOOOOOOOOO",
"                OOOOOOOOOOOOOOOO"
};
