/* XPM */
static char *result[] = {
/* columns rows colors chars-per-pixel */
"32 32 43 1 ",
"  c #613F49",
". c #705154",
"X c #705254",
"o c #7E625E",
"O c #7F655F",
"+ c #8D7469",
"@ c #856B73",
"# c #856C73",
"$ c #A9977E",
"% c #AC9C81",
"& c #A08D92",
"* c #A08D93",
"= c #B8A888",
"- c #B8A989",
"; c #B8A998",
": c #BFB39E",
"> c #BBAEB2",
", c #D5CC9E",
"< c #D6CE9F",
"1 c #D3CAA8",
"2 c #D9D4A3",
"3 c #DCD5B3",
"4 c #DFDABD",
"5 c #E0DABD",
"6 c #CDC4C7",
"7 c #CDC5C7",
"8 c #D8D2C7",
"9 c #DED8C7",
"0 c #D9D3C8",
"q c #D6D0D1",
"w c #DCD6D2",
"e c #DCD7D2",
"r c #DFDBDC",
"t c #E2DFC0",
"y c #E7E3D2",
"u c #EBE9DD",
"i c #EBEADE",
"p c #ECEAE1",
"a c #EDECE7",
"s c #EEECE7",
"d c #EEEDE7",
"f c #EFEFEC",
"g c #F1F1F1",
/* pixels */
",,,,,,<22222222<,,,,,,,,,,,<222<",
"<,,,,,,<22222222<,,,,,,,,,,,<222",
"2<,,,,,,<22222222<,,,,,,,,,,,<22",
"22<,,,,,,<22222222<,,,,,,,,,,,<2",
"222<,,,,,,<22222222<,,,,,,,,,,,<",
"<222<,,,,,,<22222222<,,,,,,,,,,,",
",<222<,ggggy<222uggggg4,,,,,,,,,",
",,<222<ggggy,<22uggggg5,,,,,,,,,",
",,,<222ggggy,,<2ugggggt<,,,,,,,,",
",,,,<22ggggfaay<ugggggfi<,,,,,,,",
",,,,,<2ggggggga4pggggggd2<,,,,,,",
",,,,,,<ggggggggggggggggd22<,,,,,",
",,,,,,,ggggggggggggggggd222<,,,,",
",,,,,,,ggggggggggggggggd2222<,,,",
",,,,,,,ggggggggggggggggd22222<,,",
",,,,,,,ggggggggggggggggd222222<,",
",,,,,,,ggggggggggggggggd2222222<",
"<,,,,,,ggggggggggggggggd22222222",
"2<,,,,,gggg6@@*g&@@qgggs<2222222",
"22<,,,,gggg>  #g@  7gggs,<222222",
"222<,,,gggg>  #g@  7gggs,,<22222",
"2222<,,gggg8$$;g:%%egggs,,,<2222",
"22222<,rrrr9,,1r3<20rrrw,,,,<222",
"222222<    +,,= -,<O   .,,,,,<22",
"2222222    +,,= -,,o   .,,,,,,<2",
"2222222    +,,= -,,o   X<,,,,,,<",
"<22222222<,,,,,,,,,,,<222<,,,,,,",
",<22222222<,,,,,,,,,,,<222<,,,,,",
",,<22222222<,,,,,,,,,,,<222<,,,,",
",,,<22222222<,,,,,,,,,,,<222<,,,",
",,,,<22222222<,,,,,,,,,,,<222<,,",
",,,,,<22222222<,,,,,,,,,,,<222<,"
};
