/* XPM */
static char *result[] = {
/* columns rows colors chars-per-pixel */
"32 32 94 2 ",
"   c #613F49",
".  c #6F5053",
"X  c #705254",
"o  c #73565E",
"O  c #7E625E",
"+  c #7F635F",
"@  c #7F655F",
"#  c #816868",
"$  c #8E756A",
"%  c #8E776B",
"&  c #937D6E",
"*  c #856B73",
"=  c #856C73",
"-  c #937D7D",
";  c #9B8573",
":  c #9C8774",
">  c #99847D",
",  c #9A857F",
"<  c #A9977E",
"1  c #978188",
"2  c #A28F88",
"3  c #A59383",
"4  c #AC9C81",
"5  c #AB9984",
"6  c #A3918D",
"7  c #AD9B88",
"8  c #A08D92",
"9  c #A9989D",
"0  c #AE9F9D",
"q  c #B3A587",
"w  c #B5A78C",
"e  c #B8A888",
"r  c #B8A989",
"t  c #B9AB8A",
"y  c #BBAE8C",
"u  c #BBAF8D",
"i  c #BFB28E",
"p  c #B2A394",
"a  c #B2A3A7",
"s  c #B9ADAD",
"d  c #BBAEB2",
"f  c #C0B38F",
"g  c #C1B493",
"h  c #C7BA93",
"j  c #C7BB93",
"k  c #C4BA97",
"l  c #C7BC94",
"z  c #C6BBB2",
"x  c #C4B9BC",
"c  c #CAC198",
"v  c #D5CC9E",
"b  c #D6CE9F",
"n  c #D7CEA3",
"m  c #D9D4A3",
"M  c #D8D0A4",
"N  c #DBD6A7",
"B  c #D9D1A9",
"V  c #DCD8AD",
"C  c #CFC6BD",
"Z  c #DCD5B3",
"A  c #DCD6B3",
"S  c #DFDBB7",
"D  c #DFDABD",
"F  c #E0DDBB",
"G  c #CDC4C7",
"H  c #CDC5C7",
"J  c #D8D1C7",
"K  c #D6CFD1",
"L  c #D6D0D1",
"P  c #DBD6D1",
"I  c #DFDBDC",
"U  c #E2DEC0",
"Y  c #E2DFC0",
"T  c #E1DCC2",
"R  c #E3DEC7",
"E  c #E3E1C6",
"W  c #E4E0C9",
"Q  c #E5E2CA",
"!  c #E5E1CC",
"~  c #E7E3D2",
"^  c #E8E5D3",
"/  c #EAE7DC",
"(  c #EAE8DC",
")  c #EBE8DC",
"_  c #EBE9DD",
"`  c #EBEADE",
"'  c #E8E6E7",
"]  c #ECEAE1",
"[  c #EDECE7",
"{  c #EEECE7",
"}  c #EEEDE7",
"|  c #EFEFEC",
" . c #F0EFEC",
".. c #F1F1F1",
/* pixels */
"v v v v v v b m m m m m m m m b v v v v v v v v v v v b m m m b ",
"b v v v v v v b m m m m m m m m b v v v v v v v v v v v b m m m ",
"m b v v v v v v b m m m m m m m m b v v v v v v v v v v v b m m ",
"m ....R v v [ ....W m m m m m m m m b v v v v v v v v v v v b m ",
"m ....~ Z n [ ....~ M m m _ ........../ v v ......{ v [ ......b ",
"b ........~ | ......Z b ` | .......... .( v ......{ v [ ......v ",
"v ..................Z v ......' d ' ......b ......{ v [ ......v ",
"v ..................Z v ......I X I ......m ......{ B [ ......v ",
"v ..................Z v ......} m } ......m ..................v ",
"v ....I G ' K L ....Z v ......} m } ......m ..................v ",
"v ....9   H o = ....Z v ......| ^ | ......m 1 I ..............v ",
"v ....z ; P 3 p ....A v G ' ..........' G m @ s L ............v ",
"v * * 7 v > j g * * k b   H ..........G   m m @ 1 ............v ",
"v     ; v O j e     y m b O           + m m m m 4             v ",
"v v v v v v v v v b m m m f r r r r r i b m m m c u u u u t r v ",
"v v v v v v v v v v b m m m b v v v v v v b m m m m m m m m b v ",
"v ..................v b Q ............D v v ......V m m m m m b ",
"b ..................v ! ] ............) T v ......E U U N m m m ",
"m ........a 9 9 9 9 v [ ......K G G G G C v ............S m m m ",
"m ........o         v [ ......*         O v ............| } } F ",
"m ........H H H H H v [ ......' I I I I J v ..................Y ",
"m ........o         v 0 9 9 9 9 x ....../ v ..................Y ",
"m ........a 9 9 9 9 v # o o o o 8 ......` b ............8 * * w ",
"m ..................v [ ................` m ......I I I - . X q ",
"m ..................v - d ............a , m ......o     r v b m ",
"m                   v & 6 d d d d d d 2 : m 1 1 1 5 < < h v v b ",
"b % % % % % % % % $ v v ;             < v b       l v v v v v v ",
"v b m m m m m m m m b v v v v v v v v v v v b m m m b v v v v v ",
"v v b m m m m m m m m b v v v v v v v v v v v b m m m b v v v v ",
"v v v b m m m m m m m m b v v v v v v v v v v v b m m m b v v v ",
"v v v v b m m m m m m m m b v v v v v v v v v v v b m m m b v v ",
"v v v v v b m m m m m m m m b v v v v v v v v v v v b m m m b v "
};
