/* XPM */
static char *_e6b8a195a79434fad8ca6c12f79989ao0sGT8lC6HAFbdVY[] = {
/* columns rows colors chars-per-pixel */
"32 32 8 1 ",
"  c #3F3126",
". c #48382B",
"X c #524031",
"o c #604B40",
"O c #7A5F42",
"+ c #8B6B44",
"@ c #9C8454",
"# c #D4B980",
/* pixels */
"++++++++++++++++++++++++++++++++",
"+@############################@+",
"+#@##########################@#+",
"+##XoOOOOOOOOOOOOOOOOOOOOOOOO##+",
"+##XXoOOOOOOOOOOOOOOOOOOOOOOO##+",
"+##XXXooooooooooooooooooooooO##+",
"+##XXXXoooooooooooooooo      ##+",
"+##     XXXXXXXXXXXXXXX ##@@ ##+",
"+## XXXXXoooooooooooooo #@@@ ##+",
"+## XXXXXXooooooooooooo #o@o ##+",
"+## XXXXXXXooooooo      #@@@ ##+",
"+## XXXXXXXXoooooo @@OO #@@@ ##+",
"+##          XXXXX @OOO #@@@ ##+",
"+##  XXXXXXXXXoooo @XOX #@@@ ##+",
"+##   XXXXXXX      @OOO #@@@ ##+",
"+##    XXXXXX OOoo @OOO #@@@ ##+",
"+##   X XXXXX Oooo @OOO #@@@ ##+",
"+##           O.o. @OOO #@@@ ##+",
"+##           Oooo @OOO #@@@ ##+",
"+##      ooXX Oooo @OOO #@@@ ##+",
"+##      oXXX Oooo @OOO #@@@ ##+",
"+##      o X  Oooo @OOO #@@@ ##+",
"+##      oXXX Oooo @OOO #@@@ ##+",
"+## XX.. oXXX Oooo @OOO #@@@ ##+",
"+## X... oXXX Oooo @OOO #@@@ ##+",
"+## X .  oXXX Oooo @OOO #@@@ ##+",
"+## X... oXXX Oooo @OOO #@@@ ##+",
"+## X... oXXX Oooo @OOO #@@@ ##+",
"+##                          ##+",
"+#@##########################@#+",
"+@############################@+",
"++++++++++++++++++++++++++++++++"
};
