/* XPM */
static char *d5547755adaf426ec6140808cfd02006dH1LT2fTPHA3IGo6[] = {
/* columns rows colors chars-per-pixel */
"32 32 4 1 ",
"  c #93C596",
". c #96C797",
"X c #97C797",
"o c #9FCC98",
/* pixels */
".                              .",
"o. .                          .o",
"oo..                         Xoo",
"oooX                        Xooo",
"oooo.                      Xoooo",
"ooooo.                    Xooooo",
"oooooo..                 Xoooooo",
"ooooooo.                Xooooooo",
"oooooooo.              Xoooooooo",
"ooooooooo.            Xooooooooo",
"oooooooooo.          Xoooooooooo",
"ooooooooooo.        Xooooooooooo",
"oooooooooooo..     Xoooooooooooo",
"ooooooooooooo.    Xooooooooooooo",
"oooooooooooooo.  Xoooooooooooooo",
"ooooooooooooooo..ooooooooooooooo",
"ooooooooooooooo..ooooooooooooooo",
"ooooooooooooooX  Xoooooooooooooo",
"oooooooooooooX    Xooooooooooooo",
"ooooooooooooX      Xoooooooooooo",
"oooooooooooX        Xooooooooooo",
"ooooooooooX          Xoooooooooo",
"oooooooooX            Xooooooooo",
"ooooooooX              Xoooooooo",
"oooooooX                Xooooooo",
"ooooooX                  Xoooooo",
"oooooX                    Xooooo",
"ooooX                      Xoooo",
"oooX                        Xooo",
"ooX                          Xoo",
"oX                            Xo",
".                              ."
};
